<?xml version="1.0" encoding="utf-8"?>
<!-- Generator: Adobe Illustrator 24.1.3, SVG Export Plug-In . SVG Version: 6.00 Build 0)  -->
<svg version="1.1" id="Layer_1" xmlns="http://www.w3.org/2000/svg" xmlns:xlink="http://www.w3.org/1999/xlink" x="0px" y="0px"
	 viewBox="0 0 156 156" style="enable-background:new 0 0 156 156;" xml:space="preserve">
<style type="text/css">
	.st0{fill:#F6F1E6;}
	.st1{fill:#B89540;}
</style>
<rect class="st0" width="156" height="156"/>
<g>
	<g>
		<g>
			<path class="st1" d="M100.46,98.41c-0.84-6.84-3.98-12.9-8.84-17.06l-1.24,1.45c4.17,3.58,7.06,8.92,8.03,14.77H57.59
				C59,89.03,64.42,81.9,71.62,79.24l-0.66-1.79c-8.16,3.02-14.21,11.25-15.42,20.96l-0.13,1.07h45.18L100.46,98.41z"/>
		</g>
	</g>
	<path class="st1" d="M89.39,63.71c-2.11-4.37-6.49-7.18-11.39-7.18s-9.28,2.81-11.39,7.18c-2.55,0.25-4.55,2.37-4.55,4.98v1
		c0,2.57,1.94,4.67,4.54,4.97c2.1,4.39,6.49,7.21,11.4,7.21v-2c-4.29,0-8.13-2.55-9.81-6.49c-0.01-0.03,0-0.06-0.01-0.09
		c-0.54-1.3-0.82-2.68-0.82-4.09c0-1.42,0.28-2.8,0.82-4.11c0.01-0.03,0-0.05,0.01-0.08c1.69-3.94,5.53-6.48,9.81-6.48
		c4.28,0,8.12,2.54,9.81,6.47c0.01,0.03,0,0.06,0.01,0.09c0.55,1.31,0.82,2.69,0.82,4.11c0,1.4-0.28,2.78-0.83,4.09
		c-0.13,0.32-0.03,0.68,0.17,0.97c0.19,0.29,0.58,0.46,0.93,0.46c2.77,0,5.03-2.26,5.03-5.03v-1
		C93.94,66.08,91.93,63.95,89.39,63.71z M64.12,69.69v-1c0-1.13,0.63-2.11,1.56-2.62c-0.02,0.08-0.03,0.16-0.04,0.24
		c-0.08,0.33-0.14,0.67-0.19,1.01c-0.02,0.14-0.05,0.28-0.06,0.43c-0.05,0.48-0.09,0.96-0.09,1.45c0,0.48,0.03,0.96,0.09,1.44
		c0.02,0.15,0.04,0.29,0.07,0.44c0.05,0.33,0.11,0.66,0.18,0.99c0.02,0.08,0.03,0.17,0.05,0.25C64.75,71.8,64.12,70.82,64.12,69.69z
		 M91.88,69.69c0,1.11-0.61,2.08-1.56,2.59c0.02-0.08,0.03-0.16,0.04-0.23c0.08-0.33,0.14-0.66,0.19-1
		c0.02-0.14,0.05-0.28,0.06-0.42c0.05-0.47,0.09-0.95,0.09-1.42c0-0.49-0.03-0.97-0.09-1.44c-0.02-0.15-0.04-0.29-0.07-0.44
		c-0.05-0.34-0.11-0.67-0.19-1.01c-0.02-0.08-0.02-0.16-0.04-0.24c0.93,0.5,1.56,1.49,1.56,2.62V69.69z"/>
	<ellipse class="st1" cx="79.22" cy="80.9" rx="3.66" ry="2.91"/>
</g>
</svg>
