<?xml version="1.0" encoding="utf-8"?>
<!-- Generator: Adobe Illustrator 24.1.3, SVG Export Plug-In . SVG Version: 6.00 Build 0)  -->
<svg version="1.1" id="Layer_1" xmlns="http://www.w3.org/2000/svg" xmlns:xlink="http://www.w3.org/1999/xlink" x="0px" y="0px"
	 viewBox="0 0 156 156" style="enable-background:new 0 0 156 156;" xml:space="preserve">
<style type="text/css">
	.st0{fill:#F6F1E6;}
	.st1{fill:#B89540;}
</style>
<rect class="st0" width="156" height="156"/>
<g>
	<path class="st1" d="M94,98H62c-1.65,0-3-1.35-3-3V65c0-1.65,1.35-3,3-3h32c1.65,0,3,1.35,3,3v30C97,96.65,95.65,98,94,98z M61,66
		v29c0,0.55,0.45,1,1,1h32c0.55,0,1-0.45,1-1V66"/>
	<rect x="67" y="74" class="st1" width="6" height="4"/>
	<rect x="75" y="74" class="st1" width="6" height="4"/>
	<rect x="83" y="74" class="st1" width="6" height="4"/>
	<rect x="67" y="80" class="st1" width="6" height="4"/>
	<rect x="75" y="80" class="st1" width="6" height="4"/>
	<rect x="83" y="80" class="st1" width="6" height="4"/>
	<rect x="67" y="86" class="st1" width="6" height="4"/>
	<rect x="75" y="86" class="st1" width="6" height="4"/>
	<rect x="83" y="86" class="st1" width="6" height="4"/>
	<g>
		<path class="st1" d="M67.99,70c-0.55,0-1-0.45-1-1V59c0-0.55,0.45-1,1-1s1,0.45,1,1v10C68.99,69.55,68.55,70,67.99,70z"/>
		<path class="st1" d="M78,70c-0.55,0-1-0.45-1-1V59c0-0.55,0.45-1,1-1s1,0.45,1,1v10C79,69.55,78.55,70,78,70z"/>
		<path class="st1" d="M88,70c-0.55,0-1-0.45-1-1V59c0-0.55,0.45-1,1-1s1,0.45,1,1v10C89,69.55,88.55,70,88,70z"/>
	</g>
</g>
</svg>
