<?xml version="1.0" encoding="utf-8"?>
<!-- Generator: Adobe Illustrator 24.1.3, SVG Export Plug-In . SVG Version: 6.00 Build 0)  -->
<svg version="1.1" id="Layer_1" xmlns="http://www.w3.org/2000/svg" xmlns:xlink="http://www.w3.org/1999/xlink" x="0px" y="0px"
	 viewBox="0 0 156 156" style="enable-background:new 0 0 156 156;" xml:space="preserve">
<style type="text/css">
	.st0{fill:#F6F1E6;}
	.st1{fill:#B89540;}
</style>
<rect x="0" class="st0" width="156" height="156"/>
<g>
	<path class="st1" d="M106.52,77.97h-3.76l-1.63-10.42c-0.09-0.46-0.5-0.8-0.99-0.8H89.52v-7.28c0-0.54-0.46-0.98-1.01-0.98H58.52
		c-0.55,0-1,0.44-1,0.98v32.01c0,0.54,0.45,0.98,1,0.98h3.79c0.48,2.87,3.04,5.06,6.11,5.06c3.08,0,5.64-2.2,6.12-5.06h13.82
		c0.48,2.87,3.04,5.06,6.12,5.06c3.08,0,5.63-2.2,6.11-5.06h5.93c0.56,0,1-0.44,1-0.98V78.94C107.53,78.4,107.08,77.97,106.52,77.97
		z M72.6,91.72c-0.13,2.14-1.95,3.84-4.18,3.84c-2.31,0-4.19-1.83-4.19-4.09c0-2.25,1.88-4.08,4.19-4.08c2.23,0,4.05,1.7,4.18,3.84
		C72.61,91.4,72.61,91.57,72.6,91.72z M94.48,95.56c-2.24,0-4.06-1.71-4.19-3.87c-0.01-0.11-0.01-0.34,0-0.43
		c0.12-2.15,1.95-3.88,4.19-3.88c2.31,0,4.19,1.83,4.19,4.09C98.67,93.73,96.79,95.56,94.48,95.56z M105.52,90.49h-4.93
		c-0.48-2.87-3.04-5.07-6.11-5.07c-3.08,0-5.63,2.2-6.12,5.07H74.54c-0.48-2.87-3.04-5.07-6.12-5.07c-3.07,0-5.64,2.2-6.11,5.07
		h-2.78V60.44h27.99v18.79c0,0.54,0.45,0.98,1,0.98c0.55,0,1.01-0.44,1.01-0.98V68.7h9.77l1.64,10.42c0.08,0.47,0.5,0.81,0.99,0.81
		h3.6V90.49L105.52,90.49z"/>
	<g>
		<path class="st1" d="M64.15,79.51H49.48c-0.56,0-1,0.6-1,1.14s0.45,0.66,1,0.66h14.67c0.55,0,1-0.12,1-0.66
			S64.71,79.51,64.15,79.51z"/>
		<path class="st1" d="M66.28,67.54h-16.8c-0.55,0-1.01,0.44-1.01,0.98c0,0.54,0.45,0.81,1.01,0.81h16.8c0.55,0,1-0.27,1-0.81
			C67.28,67.98,66.83,67.54,66.28,67.54z"/>
		<path class="st1" d="M65.28,73.6H54.39c-0.55,0-1.01,0.2-1.01,0.74c0,0.54,0.46,0.98,1.01,0.98h10.89c0.55,0,1-0.44,1-0.98
			C66.28,73.8,65.83,73.6,65.28,73.6z"/>
	</g>
</g>
</svg>
